<?xml version="1.0" encoding="utf-8"?>
<!-- Generator: Adobe Illustrator 16.0.0, SVG Export Plug-In . SVG Version: 6.00 Build 0)  -->
<!DOCTYPE svg PUBLIC "-//W3C//DTD SVG 1.1//EN" "http://www.w3.org/Graphics/SVG/1.1/DTD/svg11.dtd">
<svg version="1.1" xmlns="http://www.w3.org/2000/svg" xmlns:xlink="http://www.w3.org/1999/xlink" x="0px" y="0px" width="600px"
	 height="600px" viewBox="0 0 600 600" enable-background="new 0 0 600 600" xml:space="preserve">
<g id="Layer_3">
	<rect x="0" y="0" fill="#2B6641" width="600" height="600"/>
</g>
<g id="Layer_2">
	<rect x="30" y="120" fill="#3D935E" width="540" height="450"/>
	<rect x="570" y="570" display="none" fill="#3D935E" width="30" height="30"/>
</g>
<g id="Layer_4">
	<g>
		<g>
			<line fill="none" stroke="#2B6641" stroke-linecap="round" stroke-miterlimit="10" x1="540" y1="120" x2="540" y2="570"/>
		</g>
		<g>
			<line fill="none" stroke="#2B6641" stroke-linecap="round" stroke-miterlimit="10" x1="510" y1="120" x2="510" y2="570"/>
		</g>
		<g>
			<line fill="none" stroke="#2B6641" stroke-linecap="round" stroke-miterlimit="10" x1="480" y1="120" x2="480" y2="570"/>
		</g>
		<g>
			<line fill="none" stroke="#2B6641" stroke-linecap="round" stroke-miterlimit="10" x1="450" y1="120" x2="450" y2="570"/>
		</g>
		<g>
			<line fill="none" stroke="#2B6641" stroke-linecap="round" stroke-miterlimit="10" x1="420" y1="120" x2="420" y2="570"/>
		</g>
		<g>
			<line fill="none" stroke="#2B6641" stroke-linecap="round" stroke-miterlimit="10" x1="390" y1="120" x2="390" y2="570"/>
		</g>
		<g>
			<line fill="none" stroke="#2B6641" stroke-linecap="round" stroke-miterlimit="10" x1="360" y1="120" x2="360" y2="570"/>
		</g>
		<g>
			<line fill="none" stroke="#2B6641" stroke-linecap="round" stroke-miterlimit="10" x1="330" y1="120" x2="330" y2="570"/>
		</g>
		<g>
			<line fill="none" stroke="#2B6641" stroke-linecap="round" stroke-miterlimit="10" x1="300" y1="120" x2="300" y2="570"/>
		</g>
		<g>
			<line fill="none" stroke="#2B6641" stroke-linecap="round" stroke-miterlimit="10" x1="270" y1="120" x2="270" y2="570"/>
		</g>
		<g>
			<line fill="none" stroke="#2B6641" stroke-linecap="round" stroke-miterlimit="10" x1="240" y1="120" x2="240" y2="570"/>
		</g>
		<g>
			<line fill="none" stroke="#2B6641" stroke-linecap="round" stroke-miterlimit="10" x1="210" y1="120" x2="210" y2="570"/>
		</g>
		<g>
			<line fill="none" stroke="#2B6641" stroke-linecap="round" stroke-miterlimit="10" x1="180" y1="120" x2="180" y2="570"/>
		</g>
		<g>
			<line fill="none" stroke="#2B6641" stroke-linecap="round" stroke-miterlimit="10" x1="150" y1="120" x2="150" y2="570"/>
		</g>
		<g>
			<line fill="none" stroke="#2B6641" stroke-linecap="round" stroke-miterlimit="10" x1="120" y1="120" x2="120" y2="570"/>
		</g>
		<g>
			<line fill="none" stroke="#2B6641" stroke-linecap="round" stroke-miterlimit="10" x1="90" y1="120" x2="90" y2="570"/>
		</g>
		<g>
			<line fill="none" stroke="#2B6641" stroke-linecap="round" stroke-miterlimit="10" x1="60" y1="120" x2="60" y2="570"/>
		</g>
	</g>
</g>
<g id="Layer_4_copy">
	<g>
		<g>
			<line fill="none" stroke="#2B6641" stroke-linecap="round" stroke-miterlimit="10" x1="570" y1="570" x2="30" y2="570"/>
		</g>
		<g>
			<line fill="none" stroke="#2B6641" stroke-linecap="round" stroke-miterlimit="10" x1="570" y1="540" x2="30" y2="540"/>
		</g>
		<g>
			<line fill="none" stroke="#2B6641" stroke-linecap="round" stroke-miterlimit="10" x1="570" y1="510" x2="30" y2="510"/>
		</g>
		<g>
			<line fill="none" stroke="#2B6641" stroke-linecap="round" stroke-miterlimit="10" x1="570" y1="480" x2="30" y2="480"/>
		</g>
		<g>
			<line fill="none" stroke="#2B6641" stroke-linecap="round" stroke-miterlimit="10" x1="570" y1="450" x2="30" y2="450"/>
		</g>
		<g>
			<line fill="none" stroke="#2B6641" stroke-linecap="round" stroke-miterlimit="10" x1="570" y1="420" x2="30" y2="420"/>
		</g>
		<g>
			<line fill="none" stroke="#2B6641" stroke-linecap="round" stroke-miterlimit="10" x1="570" y1="390" x2="30" y2="390"/>
		</g>
		<g>
			<line fill="none" stroke="#2B6641" stroke-linecap="round" stroke-miterlimit="10" x1="570" y1="360" x2="30" y2="360"/>
		</g>
		<g>
			<line fill="none" stroke="#2B6641" stroke-linecap="round" stroke-miterlimit="10" x1="570" y1="330" x2="30" y2="330"/>
		</g>
		<g>
			<line fill="none" stroke="#2B6641" stroke-linecap="round" stroke-miterlimit="10" x1="570" y1="300" x2="30" y2="300"/>
		</g>
		<g>
			<line fill="none" stroke="#2B6641" stroke-linecap="round" stroke-miterlimit="10" x1="570" y1="270" x2="30" y2="270"/>
		</g>
		<g>
			<line fill="none" stroke="#2B6641" stroke-linecap="round" stroke-miterlimit="10" x1="570" y1="240" x2="30" y2="240"/>
		</g>
		<g>
			<line fill="none" stroke="#2B6641" stroke-linecap="round" stroke-miterlimit="10" x1="570" y1="210" x2="30" y2="210"/>
		</g>
		<g>
			<line fill="none" stroke="#2B6641" stroke-linecap="round" stroke-miterlimit="10" x1="570" y1="180" x2="30" y2="180"/>
		</g>
		<g>
			<line fill="none" stroke="#2B6641" stroke-linecap="round" stroke-miterlimit="10" x1="570" y1="150" x2="30" y2="150"/>
		</g>
	</g>
</g>
<g id="счёт">
	<g>
		<path fill="#3D935E" d="M570,60c0,16.5-13.5,30-30,30H60c-16.5,0-30-13.5-30-30l0,0c0-16.5,13.5-30,30-30h480
			C556.5,30,570,43.5,570,60L570,60z"/>
	</g>
	<rect x="120" y="42.074" fill="none" width="450.001" height="54"/>
	<text transform="matrix(1 0 0 1 120.0059 77.7144)" display="none" fill="#FBBA00" font-family="'ArialMT'" font-size="50">123</text>
</g>
<g id="змейка" display="none">
	<g display="inline">
		<radialGradient id="SVGID_1_" cx="75" cy="165" r="15" gradientUnits="userSpaceOnUse">
			<stop  offset="0" style="stop-color:#FBBA00"/>
			<stop  offset="0.2338" style="stop-color:#F7B700"/>
			<stop  offset="0.471" style="stop-color:#EBAE00"/>
			<stop  offset="0.7098" style="stop-color:#D69F00"/>
			<stop  offset="0.9485" style="stop-color:#BA8900"/>
			<stop  offset="1" style="stop-color:#B38400"/>
		</radialGradient>
		<circle fill="url(#SVGID_1_)" cx="75" cy="165" r="15"/>
		<g>
			<defs>
				<circle id="SVGID_2_" cx="75" cy="165" r="15"/>
			</defs>
			<clipPath id="SVGID_3_">
				<use xlink:href="#SVGID_2_"  overflow="visible"/>
			</clipPath>
			
				<circle clip-path="url(#SVGID_3_)" fill="none" stroke="#B38400" stroke-width="2" stroke-miterlimit="10" cx="75" cy="165" r="10"/>
			
				<circle clip-path="url(#SVGID_3_)" fill="none" stroke="#B38400" stroke-width="2" stroke-miterlimit="10" cx="75" cy="165" r="5"/>
		</g>
	</g>
	<g display="inline">
		<radialGradient id="SVGID_4_" cx="255" cy="315" r="15" gradientUnits="userSpaceOnUse">
			<stop  offset="0" style="stop-color:#FBBA00"/>
			<stop  offset="0.2338" style="stop-color:#F7B700"/>
			<stop  offset="0.471" style="stop-color:#EBAE00"/>
			<stop  offset="0.7098" style="stop-color:#D69F00"/>
			<stop  offset="0.9485" style="stop-color:#BA8900"/>
			<stop  offset="1" style="stop-color:#B38400"/>
		</radialGradient>
		<circle fill="url(#SVGID_4_)" cx="255" cy="315" r="15"/>
		<g>
			<defs>
				<circle id="SVGID_5_" cx="255" cy="315" r="15"/>
			</defs>
			<clipPath id="SVGID_6_">
				<use xlink:href="#SVGID_5_"  overflow="visible"/>
			</clipPath>
			
				<circle clip-path="url(#SVGID_6_)" fill="none" stroke="#B38400" stroke-width="2" stroke-miterlimit="10" cx="255" cy="315" r="10"/>
			
				<circle clip-path="url(#SVGID_6_)" fill="none" stroke="#B38400" stroke-width="2" stroke-miterlimit="10" cx="255" cy="315" r="5"/>
		</g>
	</g>
	<g display="inline">
		<radialGradient id="SVGID_7_" cx="255" cy="285" r="15" gradientUnits="userSpaceOnUse">
			<stop  offset="0" style="stop-color:#FBBA00"/>
			<stop  offset="0.2338" style="stop-color:#F7B700"/>
			<stop  offset="0.471" style="stop-color:#EBAE00"/>
			<stop  offset="0.7098" style="stop-color:#D69F00"/>
			<stop  offset="0.9485" style="stop-color:#BA8900"/>
			<stop  offset="1" style="stop-color:#B38400"/>
		</radialGradient>
		<circle fill="url(#SVGID_7_)" cx="255" cy="285" r="15"/>
		<g>
			<defs>
				<circle id="SVGID_8_" cx="255" cy="285" r="15"/>
			</defs>
			<clipPath id="SVGID_9_">
				<use xlink:href="#SVGID_8_"  overflow="visible"/>
			</clipPath>
			
				<circle clip-path="url(#SVGID_9_)" fill="none" stroke="#B38400" stroke-width="2" stroke-miterlimit="10" cx="255" cy="285" r="10"/>
			
				<circle clip-path="url(#SVGID_9_)" fill="none" stroke="#B38400" stroke-width="2" stroke-miterlimit="10" cx="255" cy="285" r="5"/>
		</g>
	</g>
</g>
<g id="яблоко" display="none">
	<radialGradient id="SVGID_10_" cx="407.5" cy="228" r="10" fx="414.2181" fy="235.4072" gradientUnits="userSpaceOnUse">
		<stop  offset="0" style="stop-color:#E41D36"/>
		<stop  offset="0.229" style="stop-color:#E01C35"/>
		<stop  offset="0.4614" style="stop-color:#D41B32"/>
		<stop  offset="0.6953" style="stop-color:#BF182D"/>
		<stop  offset="0.929" style="stop-color:#A31426"/>
		<stop  offset="1" style="stop-color:#991324"/>
	</radialGradient>
	<circle display="inline" fill="url(#SVGID_10_)" cx="405" cy="228" r="10"/>
	<path display="inline" fill="none" stroke="#2B6641" stroke-miterlimit="10" d="M405,219.836c0-3.667,3.834-7.167,11.167-7.167"/>
	<path display="inline" fill="#2B6641" d="M406.905,215.649c1.583-2.25,8.678-0.775,10.012,3.517
		C416.917,219.167,411.822,220.233,406.905,215.649z"/>
</g>
<g id="яблоко_copy">
	<radialGradient id="SVGID_11_" cx="81.1514" cy="63.668" r="13.688" fx="90.3472" fy="73.807" gradientUnits="userSpaceOnUse">
		<stop  offset="0" style="stop-color:#E41D36"/>
		<stop  offset="0.229" style="stop-color:#E01C35"/>
		<stop  offset="0.4614" style="stop-color:#D41B32"/>
		<stop  offset="0.6953" style="stop-color:#BF182D"/>
		<stop  offset="0.929" style="stop-color:#A31426"/>
		<stop  offset="1" style="stop-color:#991324"/>
	</radialGradient>
	<circle fill="url(#SVGID_11_)" cx="77.729" cy="63.668" r="13.688"/>
	<path fill="#2B6641" d="M78.414,52.494h-1.368C77.045,47.439,82.042,42,93.015,42v1.369C82.983,43.369,78.414,48.1,78.414,52.494z"
		/>
	<path fill="#2B6641" d="M80.337,46.763c2.167-3.08,11.878-1.061,13.704,4.814C94.042,51.578,87.067,53.037,80.337,46.763z"/>
</g>
<g id="Layer_6">
</g>
</svg>
